<mxfile host="app.diagrams.net" agent="Mozilla/5.0 (Windows NT 10.0; Win64; x64; rv:134.0) Gecko/20100101 Firefox/134.0" version="26.0.10">
  <diagram name="Page-1" id="NOy-pJ9FiRxzBPrfHXnh">
    <mxGraphModel dx="1323" dy="1723" grid="1" gridSize="10" guides="1" tooltips="1" connect="1" arrows="1" fold="1" page="1" pageScale="1" pageWidth="850" pageHeight="1100" math="0" shadow="0">
      <root>
        <mxCell id="0" />
        <mxCell id="1" parent="0" />
        <mxCell id="Cj6cQdjGoqn9FvplHezV-40" value="IPv6 Generator" style="swimlane;childLayout=stackLayout;resizeParent=1;resizeParentMax=0;horizontal=1;startSize=20;horizontalStack=0;html=1;" vertex="1" parent="1">
          <mxGeometry x="380" y="200" width="490" height="260" as="geometry" />
        </mxCell>
        <mxCell id="Cj6cQdjGoqn9FvplHezV-41" value="Generator" style="swimlane;startSize=20;horizontal=0;html=1;" vertex="1" parent="Cj6cQdjGoqn9FvplHezV-40">
          <mxGeometry y="20" width="490" height="120" as="geometry" />
        </mxCell>
        <mxCell id="Cj6cQdjGoqn9FvplHezV-44" value="" style="swimlane;childLayout=stackLayout;horizontal=1;fillColor=none;horizontalStack=1;resizeParent=1;resizeParentMax=0;resizeLast=0;collapsible=0;strokeColor=none;stackBorder=10;stackSpacing=-12;resizable=1;align=center;points=[];whiteSpace=wrap;html=1;" vertex="1" parent="Cj6cQdjGoqn9FvplHezV-41">
          <mxGeometry x="20" width="450" height="120" as="geometry" />
        </mxCell>
        <mxCell id="Cj6cQdjGoqn9FvplHezV-45" value="&lt;div&gt;IPv6 Counter Ticks&lt;/div&gt;&lt;div&gt;Upwards 1 Value&lt;br&gt;&lt;/div&gt;" style="shape=step;perimeter=stepPerimeter;fixedSize=1;points=[];whiteSpace=wrap;html=1;" vertex="1" parent="Cj6cQdjGoqn9FvplHezV-44">
          <mxGeometry x="10" y="33" width="150" height="77" as="geometry" />
        </mxCell>
        <mxCell id="Cj6cQdjGoqn9FvplHezV-46" value="&lt;div&gt;&amp;nbsp;&amp;nbsp;&amp;nbsp;&amp;nbsp; IPv6 Counter Enqueues&lt;/div&gt;&lt;div&gt;This IPv6 Value&lt;br&gt;&lt;/div&gt;" style="shape=step;perimeter=stepPerimeter;fixedSize=1;points=[];whiteSpace=wrap;html=1;" vertex="1" parent="Cj6cQdjGoqn9FvplHezV-44">
          <mxGeometry x="148" y="33" width="152" height="77" as="geometry" />
        </mxCell>
        <mxCell id="Cj6cQdjGoqn9FvplHezV-47" value="Repeat" style="shape=step;perimeter=stepPerimeter;fixedSize=1;points=[];whiteSpace=wrap;html=1;" vertex="1" parent="Cj6cQdjGoqn9FvplHezV-44">
          <mxGeometry x="288" y="33" width="152" height="77" as="geometry" />
        </mxCell>
        <mxCell id="Cj6cQdjGoqn9FvplHezV-42" value="Worker" style="swimlane;startSize=20;horizontal=0;html=1;" vertex="1" parent="Cj6cQdjGoqn9FvplHezV-40">
          <mxGeometry y="140" width="490" height="120" as="geometry" />
        </mxCell>
        <mxCell id="Cj6cQdjGoqn9FvplHezV-48" value="" style="swimlane;childLayout=stackLayout;horizontal=1;fillColor=none;horizontalStack=1;resizeParent=1;resizeParentMax=0;resizeLast=0;collapsible=0;strokeColor=none;stackBorder=10;stackSpacing=-12;resizable=1;align=center;points=[];whiteSpace=wrap;html=1;" vertex="1" parent="Cj6cQdjGoqn9FvplHezV-42">
          <mxGeometry x="29" width="450" height="120" as="geometry" />
        </mxCell>
        <mxCell id="Cj6cQdjGoqn9FvplHezV-49" value="&lt;div&gt;The IPv6 Queue Is&lt;/div&gt;&lt;div&gt;Checked&lt;br&gt;&lt;/div&gt;" style="shape=step;perimeter=stepPerimeter;fixedSize=1;points=[];whiteSpace=wrap;html=1;" vertex="1" parent="Cj6cQdjGoqn9FvplHezV-48">
          <mxGeometry x="10" y="33" width="150" height="77" as="geometry" />
        </mxCell>
        <mxCell id="Cj6cQdjGoqn9FvplHezV-50" value="&lt;div&gt;Latest Value is &lt;br&gt;&lt;/div&gt;&lt;div&gt;&amp;nbsp;&amp;nbsp; Grabbed From Queue&lt;br&gt;&lt;/div&gt;" style="shape=step;perimeter=stepPerimeter;fixedSize=1;points=[];whiteSpace=wrap;html=1;" vertex="1" parent="Cj6cQdjGoqn9FvplHezV-48">
          <mxGeometry x="148" y="33" width="152" height="77" as="geometry" />
        </mxCell>
        <mxCell id="Cj6cQdjGoqn9FvplHezV-51" value="Repeat" style="shape=step;perimeter=stepPerimeter;fixedSize=1;points=[];whiteSpace=wrap;html=1;" vertex="1" parent="Cj6cQdjGoqn9FvplHezV-48">
          <mxGeometry x="288" y="33" width="152" height="77" as="geometry" />
        </mxCell>
        <mxCell id="Cj6cQdjGoqn9FvplHezV-29" value="ICMP Packet Listener" style="swimlane;childLayout=stackLayout;horizontal=1;fillColor=none;horizontalStack=1;resizeParent=1;resizeParentMax=0;resizeLast=0;collapsible=0;strokeColor=none;stackBorder=10;stackSpacing=-12;resizable=1;align=center;points=[];whiteSpace=wrap;html=1;startSize=23;" vertex="1" parent="1">
          <mxGeometry x="380" y="40" width="510" height="120" as="geometry" />
        </mxCell>
        <mxCell id="Cj6cQdjGoqn9FvplHezV-30" value="&lt;div&gt;ICMP Packet&lt;/div&gt;&lt;div&gt;Received&lt;br&gt;&lt;/div&gt;" style="shape=step;perimeter=stepPerimeter;fixedSize=1;points=[];whiteSpace=wrap;html=1;" vertex="1" parent="Cj6cQdjGoqn9FvplHezV-29">
          <mxGeometry x="10" y="33" width="170" height="77" as="geometry" />
        </mxCell>
        <mxCell id="Cj6cQdjGoqn9FvplHezV-31" value="Packet data scanned for identifying information" style="shape=step;perimeter=stepPerimeter;fixedSize=1;points=[];whiteSpace=wrap;html=1;" vertex="1" parent="Cj6cQdjGoqn9FvplHezV-29">
          <mxGeometry x="168" y="33" width="172" height="77" as="geometry" />
        </mxCell>
        <mxCell id="Cj6cQdjGoqn9FvplHezV-32" value="&lt;div&gt;Attempts connection if&amp;nbsp;&lt;/div&gt;&lt;div&gt;data is found, or&lt;/div&gt;&lt;div&gt;discards it otherwise&lt;br&gt;&lt;/div&gt;" style="shape=step;perimeter=stepPerimeter;fixedSize=1;points=[];whiteSpace=wrap;html=1;" vertex="1" parent="Cj6cQdjGoqn9FvplHezV-29">
          <mxGeometry x="328" y="33" width="172" height="77" as="geometry" />
        </mxCell>
        <mxCell id="Cj6cQdjGoqn9FvplHezV-55" value="Widescan" style="swimlane;fillColor=#dae8fc;strokeColor=#6c8ebf;gradientColor=none;labelBackgroundColor=none;" vertex="1" parent="1">
          <mxGeometry x="100" y="-10" width="790" height="490" as="geometry" />
        </mxCell>
        <mxCell id="Cj6cQdjGoqn9FvplHezV-56" value="Start" style="whiteSpace=wrap;html=1;" vertex="1" parent="Cj6cQdjGoqn9FvplHezV-55">
          <mxGeometry x="95" y="83" width="100" height="40" as="geometry" />
        </mxCell>
        <mxCell id="Cj6cQdjGoqn9FvplHezV-57" value="IPv6 Generator Starts" style="whiteSpace=wrap;html=1;" vertex="1" parent="Cj6cQdjGoqn9FvplHezV-55">
          <mxGeometry x="30" y="173" width="100" height="40" as="geometry" />
        </mxCell>
        <mxCell id="Cj6cQdjGoqn9FvplHezV-58" value="" style="html=1;rounded=1;curved=0;sourcePerimeterSpacing=0;targetPerimeterSpacing=0;startSize=6;endSize=6;noEdgeStyle=1;orthogonal=1;" edge="1" parent="Cj6cQdjGoqn9FvplHezV-55" source="Cj6cQdjGoqn9FvplHezV-56" target="Cj6cQdjGoqn9FvplHezV-57">
          <mxGeometry relative="1" as="geometry">
            <Array as="points">
              <mxPoint x="122.5" y="135" />
              <mxPoint x="80" y="161" />
            </Array>
          </mxGeometry>
        </mxCell>
        <mxCell id="Cj6cQdjGoqn9FvplHezV-59" value="ICMP Packet Listener Starts" style="whiteSpace=wrap;html=1;" vertex="1" parent="Cj6cQdjGoqn9FvplHezV-55">
          <mxGeometry x="160" y="173" width="100" height="40" as="geometry" />
        </mxCell>
        <mxCell id="Cj6cQdjGoqn9FvplHezV-60" value="" style="html=1;rounded=1;curved=0;sourcePerimeterSpacing=0;targetPerimeterSpacing=0;startSize=6;endSize=6;noEdgeStyle=1;orthogonal=1;" edge="1" parent="Cj6cQdjGoqn9FvplHezV-55" source="Cj6cQdjGoqn9FvplHezV-56" target="Cj6cQdjGoqn9FvplHezV-59">
          <mxGeometry relative="1" as="geometry">
            <Array as="points">
              <mxPoint x="167.5" y="135" />
              <mxPoint x="210" y="161" />
            </Array>
          </mxGeometry>
        </mxCell>
      </root>
    </mxGraphModel>
  </diagram>
</mxfile>
